{"title":"Gilda(1946)MPEG-4[DaScubaDude]","uid":14585424,"size":1084946796,"categoryP":"video","categoryS":"movies","magnet":"?xt=urn:btih:c6d19ea7e42dd84f94cec7916b79124647cedee7&amp;dn=Gilda%281946%29MPEG-4%5BDaScubaDude%5D&amp;tr=udp%3A%2F%2Ftracker.leechers-paradise.org%3A6969&amp;tr=udp%3A%2F%2Fzer0day.ch%3A1337&amp;tr=udp%3A%2F%2Fopen.demonii.com%3A1337&amp;tr=udp%3A%2F%2Ftracker.coppersurfer.tk%3A6969&amp;tr=udp%3A%2F%2Fexodus.desync.com%3A6969","seeders":1,"leechers":0,"uploader":"dascuba","files":1,"time":1462917642,"description":"Gilda (1946)\r\nNot Rated | 1h 50min | Drama, Film-Noir, Romance | 15 March 1946 (USA)\r\nJohnny Farrell is a gambling cheat who turns straight to work for an unsettling casino owner Ballin Mundson. But things take a turn for Johnny as his alluring ex-lover appears as Mundson's wife, and Mundson's machinations begin to unravel.\r\nDirector: Charles Vidor\r\nWriters: E.A. Ellington (story), Jo Eisinger (adaptation) |\r\nStars: Rita Hayworth, Glenn Ford, George Macready \r\n\r\n\r\nGeneral\r\nComplete name                            : GildaGILDA_Title2.mp4\r\nFormat                                   : MPEG-4\r\nFormat profile                           : Base Media\r\nCodec ID                                 : isom (isom/iso2/avc1/mp41)\r\nFile size                                : 1.01 GiB\r\nDuration                                 : 1h 50mn\r\nOverall bit rate                         : 1 312 Kbps\r\nMovie name                               : GILDA\r\nGenre                                    : Drama\r\nWriting application                      : Lavf54.6.100\r\n\r\nVideo\r\nID                                       : 1\r\nFormat                                   : AVC\r\nFormat/Info                              : Advanced Video Codec\r\nFormat profile                           :   \r\nFormat settings, CABAC                   : No\r\nFormat settings, ReFrames                : 6 frames\r\nFormat settings, GOP                     : M=1, N=60\r\nCodec ID                                 : avc1\r\nCodec ID/Info                            : Advanced Video Coding\r\nDuration                                 : 1h 50mn\r\nBit rate                                 : 1 199 Kbps\r\nWidth                                    : 720 pixels\r\nHeight                                   : 540 pixels\r\nDisplay aspect ratio                     : 4:3\r\nFrame rate mode                          : Constant\r\nFrame rate                               : 29.970 (30000/1001) fps\r\nColor space                              : YUV\r\nChroma subsampling                       : 4:2:0\r\nBit depth                                : 8 bits\r\nScan type                                : Progressive\r\nBits/(Pixel*Frame)                       : 0.103\r\nStream size                              : 946 MiB (91%)\r\n\r\nAudio\r\nID                                       : 2\r\nFormat                                   : AAC\r\nFormat/Info                              : Advanced Audio Codec\r\nFormat profile                           : LC\r\nCodec ID                                 : 40\r\nDuration                                 : 1h 50mn\r\nBit rate mode                            : Constant\r\nBit rate                                 : 106 Kbps\r\nChannel(s)                               : 2 channels\r\nChannel(s)_Original                      : 1 channel\r\nChannel positions                        : Front: C\r\nSampling rate                            : 44.1 KHz\r\nFrame rate                               : 43.066 fps (1024 spf)\r\nCompression mode                         : Lossy\r\nStream size                              : 83.7 MiB (8%)\r\nDefault                                  : Yes\r\nAlternate group                          : 1","torrent":{"xt":"urn:btih:c6d19ea7e42dd84f94cec7916b79124647cedee7","amp;dn":"Gilda%281946%29MPEG-4%5BDaScubaDude%5D","amp;tr":["udp%3A%2F%2Ftracker.leechers-paradise.org%3A6969","udp%3A%2F%2Fzer0day.ch%3A1337","udp%3A%2F%2Fopen.demonii.com%3A1337","udp%3A%2F%2Ftracker.coppersurfer.tk%3A6969","udp%3A%2F%2Fexodus.desync.com%3A6969"],"infoHash":"c6d19ea7e42dd84f94cec7916b79124647cedee7","infoHashBuffer":{"type":"Buffer","data":[198,209,158,167,228,45,216,79,148,206,199,145,107,121,18,70,71,206,222,231]},"announce":[],"urlList":[]}}